<svg id="Layer_1" enable-background="new 0 0 511.988 511.988" height="512" viewBox="0 0 511.988 511.988" width="512" xmlns="http://www.w3.org/2000/svg"><g id="XMLID_758_"><g id="XMLID_539_"><path id="XMLID_557_" d="m477.732 241.895c-3.904-3.905-10.236-3.906-14.143-.001-3.905 3.905-3.906 10.236-.002 14.142l2.123 2.123c2.347 2.347 1.431 4.889.928 5.873s-2.024 3.212-5.303 2.691l-102.402-16.449c-4.293-.688-8.54 1.475-10.506 5.353l-46.805 92.358c-1.502 2.964-4.205 2.88-5.299 2.707-1.093-.173-3.69-.93-4.203-4.212l-15.975-102.302c-.671-4.296-4.041-7.667-8.337-8.337l-102.302-15.974c-3.282-.512-4.039-3.11-4.212-4.203s-.256-3.797 2.707-5.298l92.358-46.805c3.879-1.966 6.043-6.212 5.353-10.506l-16.447-102.403c-.525-3.276 1.707-4.799 2.691-5.302.985-.502 3.528-1.417 5.872.927l73.338 73.338c3.068 3.068 7.764 3.806 11.625 1.832l92.002-47.053c2.954-1.511 5.093.144 5.875.926.781.782 2.438 2.92.926 5.875l-47.053 92.002c-1.975 3.862-1.235 8.557 1.832 11.625l7.576 7.576c3.906 3.905 10.236 3.905 14.143 0 3.905-3.905 3.905-10.237 0-14.143l-2.431-2.43 43.739-85.524c5.043-9.86 3.241-21.292-4.591-29.124-7.831-7.832-19.265-9.633-29.124-4.59l-85.522 43.74-68.192-68.192c-7.828-7.829-19.255-9.632-29.114-4.595-9.858 5.037-15.094 15.354-13.338 26.284l15.29 95.196-85.848 43.506c-9.886 5.01-15.153 15.32-13.42 26.267s9.93 19.125 20.88 20.835l48.05 7.503-203.033 203.034c-9.917 9.918-9.917 26.056 0 35.975l18.411 18.41c4.959 4.959 11.473 7.438 17.986 7.438 6.515 0 13.028-2.479 17.988-7.438l203.034-203.034 7.503 48.051c1.709 10.95 9.888 19.146 20.834 20.88 1.386.22 2.76.327 4.116.327 9.354-.001 17.775-5.112 22.151-13.747l43.506-85.848 95.195 15.29c10.932 1.757 21.248-3.479 26.284-13.338 5.037-9.858 3.233-21.287-4.594-29.114zm-349.643 168.105h-52.202l62-62h52.201zm-80.407 80.407c-2.12 2.118-5.571 2.12-7.691 0l-18.41-18.409c-2.12-2.121-2.12-5.571 0-7.691l34.306-34.307h52.202zm162.406-162.407h-52.201l77.049-77.049 22.576 3.525 3.525 22.575z"/><path id="XMLID_560_" d="m423.655 335.882h-7v-7c0-5.522-4.478-10-10-10s-10 4.478-10 10v7h-7c-5.522 0-10 4.478-10 10s4.478 10 10 10h7v7c0 5.522 4.478 10 10 10s10-4.478 10-10v-7h7c5.522 0 10-4.478 10-10s-4.478-10-10-10z"/><path id="XMLID_561_" d="m328.988 37h7v7c0 5.523 4.478 10 10 10s10-4.477 10-10v-7h7c5.522 0 10-4.477 10-10s-4.478-10-10-10h-7v-7c0-5.523-4.478-10-10-10s-10 4.477-10 10v7h-7c-5.522 0-10 4.477-10 10s4.477 10 10 10z"/><path id="XMLID_880_" d="m151.225 138c18.748 0 34-15.252 34-34s-15.252-34-34-34-34 15.252-34 34 15.252 34 34 34zm0-48c7.72 0 14 6.28 14 14s-6.28 14-14 14-14-6.28-14-14 6.28-14 14-14z"/><path id="XMLID_881_" d="m501.988 164c-2.63 0-5.21 1.07-7.07 2.93s-2.93 4.44-2.93 7.07 1.069 5.21 2.93 7.07 4.44 2.93 7.07 2.93 5.21-1.07 7.069-2.93c1.86-1.86 2.931-4.44 2.931-7.07s-1.07-5.21-2.931-7.07c-1.859-1.86-4.44-2.93-7.069-2.93z"/><path id="XMLID_1531_" d="m501.988 20c2.63 0 5.21-1.07 7.069-2.93 1.86-1.86 2.931-4.44 2.931-7.07s-1.07-5.21-2.931-7.07c-1.859-1.86-4.44-2.93-7.069-2.93s-5.21 1.07-7.07 2.93-2.93 4.44-2.93 7.07 1.069 5.21 2.93 7.07 4.44 2.93 7.07 2.93z"/><path id="XMLID_1569_" d="m106.988 37c2.63 0 5.21-1.07 7.069-2.93 1.86-1.86 2.931-4.44 2.931-7.07s-1.07-5.21-2.931-7.07c-1.859-1.86-4.439-2.93-7.069-2.93s-5.21 1.07-7.07 2.93-2.93 4.44-2.93 7.07 1.069 5.21 2.93 7.07 4.44 2.93 7.07 2.93z"/><path id="XMLID_1571_" d="m431.768 210.08c-1.86 1.86-2.931 4.43-2.931 7.07 0 2.63 1.07 5.21 2.931 7.07 1.859 1.86 4.439 2.93 7.069 2.93 2.641 0 5.21-1.07 7.07-2.93 1.87-1.86 2.939-4.44 2.939-7.07s-1.069-5.21-2.939-7.07c-1.86-1.86-4.43-2.93-7.07-2.93-2.63 0-5.21 1.07-7.069 2.93z"/></g></g></svg>